<?xml version="1.0" encoding="iso-8859-1"?>
<!-- Generator: Adobe Illustrator 18.1.1, SVG Export Plug-In . SVG Version: 6.00 Build 0)  -->
<svg version="1.1" id="Capa_1" xmlns="http://www.w3.org/2000/svg" xmlns:xlink="http://www.w3.org/1999/xlink" x="0px" y="0px"
	 viewBox="0 0 325.544 325.544" style="enable-background:new 0 0 325.544 325.544;" xml:space="preserve">
<g>
	<g>
		<path style="fill:#010002;" d="M131.846,260.395l-5.439-5.439H79.565l0,0l-52.971-52.966c-6.788-6.788-6.788-17.791,0-24.574
			c3.394-3.394,7.838-5.091,12.287-5.091s8.893,1.697,12.287,5.091l28.392,28.392v-97.745h0.223
			c-0.092-0.734-0.223-1.463-0.223-2.225V60.58c0-9.595,7.778-17.378,17.378-17.378c9.595,0,17.378,7.778,17.378,17.378v45.258
			c0,0.761-0.131,1.485-0.223,2.225h4.487c-0.092-0.734-0.223-1.463-0.223-2.225V28.256c0-9.595,7.778-17.378,17.378-17.378
			c9.594,0,17.378,7.778,17.378,17.378v77.588c0,0.761-0.131,1.485-0.223,2.225h4.264V39.167c0-9.595,7.778-17.378,17.378-17.378
			c9.595,0,17.378,7.778,17.378,17.378v30.731c1.594,0.946,3.106,2.007,4.422,3.296V57.137c0-2.225,0.419-4.335,1.017-6.369
			c1.055-3.595,2.899-6.848,5.439-9.475v-2.127c0-15.577-12.673-28.256-28.256-28.256c-5.107,0-9.899,1.36-14.038,3.737
			C155.68,5.923,146.384,0,135.735,0c-15.577,0-28.256,12.673-28.256,28.256v6.114c-3.258-1.316-6.815-2.04-10.541-2.04
			c-15.577,0-28.256,12.673-28.256,28.256v45.258c0,0.337,0.011,0.658,0.027,0.963l-0.027,1.262v71.48l-9.823-9.823
			c-5.336-5.336-12.434-8.278-19.978-8.278s-14.642,2.937-19.978,8.278c-5.336,5.336-8.273,12.434-8.273,19.978
			s2.937,14.642,8.278,19.978l52.966,52.971l3.187,3.187h4.504h57.714L131.846,260.395z"/>
		<path style="fill:#010002;" d="M297.541,89.462c-9.595,0-17.378,7.778-17.378,17.378v30.105h-4.846V68.048
			c0-9.595-7.778-17.378-17.378-17.378c-9.594,0-17.378,7.778-17.378,17.378v0.207v68.69h-3.612h-0.653
			c0.092-0.734,0.223-1.463,0.223-2.225V73.727V60.918v-3.786c0-9.595-7.778-17.378-17.378-17.378
			c-7.609,0-14.011,4.922-16.361,11.737c-0.615,1.779-1.017,3.655-1.017,5.64v1.762v6.87v68.956c0,0.761,0.131,1.485,0.223,2.225
			h-4.487c0.092-0.734,0.223-1.463,0.223-2.225V89.462c0-1.931-0.392-3.758-0.974-5.493c-0.968-2.883-2.638-5.412-4.852-7.397
			c-3.078-2.758-7.098-4.487-11.558-4.487c-9.595,0-17.378,7.778-17.378,17.378v45.258c0,0.761,0.131,1.485,0.223,2.225h-0.223
			v97.745l-28.392-28.392c-3.394-3.394-7.838-5.091-12.287-5.091c-4.449,0-8.893,1.697-12.287,5.091
			c-6.788,6.788-6.788,17.786,0,24.574l24.09,24.09l5.439,5.439l5.439,5.439l3.274,3.274l7.125,6.043l10.247,8.686l0.876,0.74
			h25.052v-0.74h123.374v-99.415v-47.483V106.84C314.919,97.245,307.141,89.462,297.541,89.462z"/>
		<rect x="197.076" y="290.789" style="fill:#010002;" width="93.519" height="34.756"/>
		<polygon style="fill:#010002;" points="163.621,289.277 146.966,275.151 146.596,275.151 98.026,275.151 98.026,325.544 
			191.545,325.544 191.545,290.022 164.496,290.022 		"/>
	</g>
</g>
<g>
</g>
<g>
</g>
<g>
</g>
<g>
</g>
<g>
</g>
<g>
</g>
<g>
</g>
<g>
</g>
<g>
</g>
<g>
</g>
<g>
</g>
<g>
</g>
<g>
</g>
<g>
</g>
<g>
</g>
</svg>
